<svg xmlns="http://www.w3.org/2000/svg" data-name="Layer 1" viewBox="0 0 669 306.6">
  <path fill="#99bfe0" d="M175 196c15-12 65-16 65-16s86-47 184-35c75 9.2 154.2 43 245 65V89.7c-25.2-2.6-34.6.7-58-12.6-28-16 1 20 14 22s33 49-4 19-20-39-83-49-55 10-80 5-45 5-52 33-7 0-7 0 10-48-6-46-31 28-57 28c0 0 29-18 28-30-1-11-60 21.8-69.6 27.2A323 323 0 0 1 273 99c-33 17-75 31-75 31L60 226a130.5 130.5 0 0 0 16.2 4l31.8-13s52-8.9 67-21z"/>
  <path fill="#e2eef6" d="M533 16C489-7 500 1 452 3S293 87 293 87l1.4-.8C304 80.7 363 48 364 59c1 12-28 30-28 30 26 0 41-26 57-28s6 46 6 46 0 28 7 0 27-38 52-33 17-15 80-5 46 19 83 49 17-17 4-19-42-38-14-22c23.4 13.4 32.8 10 58 12.6v-20C618.6 59.8 573.3 37 533 16z"/>
  <path fill="#6c9db0" d="M435.3 298.8L505 304c18.8 1.4 39.8 2.2 62 2.5-14.7-.8-82.6-4.2-131.7-7.7zm-196-12.4z"/>
  <path fill="#6c9db0" d="M424 145c-98-12-184 35-184 35s-50 4-65 16-67 21-67 21l-31.8 13L15 255s-15 9-15 14c0 1.9 14.5 3.2 32.5 4.1L75 250l15 5 11-5s8-5 26-6c7.6-.4 16-4 23-7.8a122.5 122.5 0 0 0 17-11.2l-13.5 11-.3.2-9.2 7.8s-13 9-23 12-20 19-20 19c-7 16 34 14 76 11l8.9-.4L209 251l21.6-15.2L250 222l43-15 19-4-54.9 33.1-8.1 4.9-13 12.3 81-9.3 11 22 20-21 14.7-4.3 1.1-3.3 2.2-6.4 63-12 7 17.7 3 7.3 13 7 15 22 65 10 37.8 23.5c31.2.4 64.9-.2 99.2-1.3V210c-90.9-22-170-55.8-245-65zm172.2 102.6L591 244l-17-9-27-10h-18l-68-34 64 18 26 10 15-8 40 27 11.3 13.2L641 279z"/>
  <path fill="#598ca3" d="M75 276c10 0 26-1 26-1s-39-.4-68.5-1.9c0 0 32.5 2.9 42.5 2.9z"/>
  <path fill="#598ca3" d="M150 236.2c-7 3.9-15.4 7.4-23 7.8-18 1-26 6-26 6l-11 5-15-5-42.5 23.1C62 274.6 101 275 101 275s10-16 20-19 23-12 23-12l9.3-7.8.2-.2 13.5-11a122.5 122.5 0 0 1-17 11.2zm35.9 49.4h19.3l-.2.4 34.3.4a802 802 0 0 0-53.4-.8zm249.4 13.2a6920 6920 0 0 0-196-12.4c.2 0 140.7 8.6 196 12.4zm134.7 7.8l-.2-.1h-2.7z"/>
  <path fill="#598ca3" d="M532 283l-65-10-15-22-13-7-3-7.3-7-17.7-63 12-2.2 6.4-1.1 3.3L348 245l-20 21-11-22-81 9.3 13-12.3 8.1-4.9L312 203l-19 4-43 15-19.4 13.8L209 251l-23.1 34.6c13-.4 31 0 53.4.8 47.9 2 115.5 6.6 196 12.5 49 3.4 117 6.9 131.7 7.6h2.8zm109-4l-23.7-27.8-21.1-3.6zm-75-68l-15 8-26-10-64-18 68 34h18l27 10 17 9 5.2 3.6 21.1 3.6L606 238z"/>
</svg>
