<svg xmlns="http://www.w3.org/2000/svg" data-name="Layer 1" viewBox="0 0 797 295.1">
  <path fill="#99bfe0" d="M782 165.2l15-12-66-35-23-19-57.2-21c4.8 3.5 7.5 7-7.8 3-26-7-84-29-78-16s-3 14 14 27c11.7 9-15.6-3.7-28.6-10-15-5.2-92-32.2-102.9-38.6-12-7-14-11-12-11s40 18 46 19-3-5-30-24-73-1-99 10-43 15-43 15c8 6 58 17 59 19s-1 5-60-10-87-29-124-38-74 0-75 1 28 11 32 12 6 6-36-3-80-7-84-7-11 2 16 6c28 4 36 6 52 10s5 6-7 4-35-3-59-5A165.7 165.7 0 0 1 0 38.4v9.3c33.7 5.3 151.3 24 171 26.5l38 25 46 11 18 10h66l8 7 58 3 35 8 42 21 83.4 36.8 51.6-30.8z"/>
  <path fill="#6c9db0" d="M196.6 227.3L90.2 159.8l-1.7-1.2-13-19-43-16L0 109.3V140a80.5 80.5 0 0 1 39.5 35.7c21 37 15 30 64 62 0 0-4 2-41-14-21.6-9.3-46-27.5-62.5-41V295l85.5-24.5 64-38 47-5.3zM600 211.2l-34.6-15.3-83.4-36.8-42-21-35-8-58-3-8-7h-66l-18-10-46-11-38-25A16620 16620 0 0 1 0 47.7v36.9l78.5 26.2 70 7 62 16 107 32h13l70 10 65 15 8.2 3.1 66.8 25.8h8L502 231.2 404.7 221l-48.2-4.8c59 6.7 182.2 20.5 197 20.5 19.5 0 103.5-17.5 103.5-19.5s-57-6-57-6z"/>
  <path fill="#598ca3" d="M196.6 227.3L326 213.1l30.5 3c-18.8-2-31-3.5-31-3.5z"/>
  <path fill="#598ca3" d="M540.5 219.7l-66.8-25.9-8.2-3.2-65-15-70-10h-13l-107-32-62-16-70-7L0 84.6v24.8l32.5 14.4 43 16 13 19 1.7 1 106.4 67.6 128.9-14.7 31 3.6 48.2 4.8 97.3 10.2 46.5-11.5zm-478 4c37 16 41 14 41 14-49-32-43-25-64-62A80.5 80.5 0 0 0 0 139.9v42.6c16.5 13.6 40.9 31.8 62.5 41.2z"/>
  <path fill="#e2eef6" d="M650.8 78.2a91 91 0 0 0-7.8-5c-31-18.5-109.3-37-133.6-42.4l-12.9-3.2c-22-5-54-18-75-16-36 1-104 24-137 23s-125-26-141-29C127.7 2.7 124.5-9 0 13.6v24.7a165.7 165.7 0 0 0 23.5 3.4c24 2 47 3 59 5s23 0 7-4-24-6-52-10c-27-4-20-6-16-6s42-2 84 7 40 4 36 3-33-11-32-12 38-10 75-1 65 23 124 38 61 12 60 10-51-13-59-19c0 0 17-4 43-15s72-29 99-10 36 25 30 24-44-19-46-19 0 4 12 11c10.8 6.3 87.8 33.3 103 38.6 13 6.2 40.2 18.8 28.5 9.9-17-13-8-14-14-27s52 9 78 16c15.3 4 12.6.6 7.8-3z"/>
</svg>
